<svg xmlns="http://www.w3.org/2000/svg" viewBox="0 0 146.66 56.9"><defs><style>.cls-1{font-size:24.83px;font-family:VariexOT-Regular, Variex OT;}.cls-1,.cls-2,.cls-3{fill:#fff;}.cls-2{font-size:9px;font-family:lefty-Regular, lefty;}.cls-4{fill:#e6e6e6;}.cls-5{fill:#f5f5f5;}.cls-6{fill:#999;}</style></defs><title>background-logo</title><g id="Layer_2" data-name="Layer 2"><g id="Layer_1-2" data-name="Layer 1"><text class="cls-1" transform="translate(13.17 21.97)">tutor up</text><text class="cls-2" transform="translate(3.09 55.1)">a peer tutoring network for University of Portland</text><rect class="cls-3" x="13.12" y="33.21" width="126" height="6.11"/><rect class="cls-4" x="3.31" y="33.21" width="13.88" height="6.11"/><path class="cls-5" d="M3,33.21H5.84a0,0,0,0,1,0,0v6.11a0,0,0,0,1,0,0H3a3,3,0,0,1-3-3v0a3,3,0,0,1,3-3Z"/><polygon class="cls-3" points="139.12 36.26 139.12 33.21 142.89 34.74 146.66 36.26 142.89 37.79 139.12 39.32 139.12 36.26"/><polygon class="cls-6" points="144.95 35.57 146.66 36.26 144.95 36.96 144.95 35.57"/></g></g></svg>